<?xml version="1.0" encoding="utf-8"?>
<!-- Generator: Adobe Illustrator 18.0.0, SVG Export Plug-In . SVG Version: 6.00 Build 0)  -->
<!DOCTYPE svg PUBLIC "-//W3C//DTD SVG 1.1//EN" "http://www.w3.org/Graphics/SVG/1.1/DTD/svg11.dtd">
<svg version="1.1" id="レイヤー_1" xmlns="http://www.w3.org/2000/svg" xmlns:xlink="http://www.w3.org/1999/xlink" x="0px"
	 y="0px" viewBox="0 0 640 640" enable-background="new 0 0 640 640" xml:space="preserve">
<rect fill="#FFF100" width="640" height="640"/>
<text transform="matrix(1 0 0 1.1741 101.9082 50.3818)" fill="#FFFFFF" font-family="'KozGoPr6N-Regular-83pv-RKSJ-H'" font-size="160.9587" glyph-orientation-vertical="0" writing-mode="tb">買った</text>
<text transform="matrix(1.5961 0 0 1 181.1567 604.7384)" fill="#FFFFFF" font-family="'KozMinPr6N-Heavy-83pv-RKSJ-H'" font-size="81.2874">Bought</text>
<path fill="#FFFFFF" d="M333.1,279.3l0.6-3.1c0,0,1.5-0.2,2.4-0.4c1-0.1,2.2-3.1,3.5-5.3c1.2-2.2,0.2-3,0.2-3s0-0.8,0.4-1.7
	c0.4-0.9-0.9-3.6-1.5-4.4c-0.6-0.8-2.8-1.3-2.8-1.3s-1.3,0.1-1.9,0.1c-0.6,0-1.1-0.2-2.9,0.3c-1.4-0.2-2.5,1.5-3.4,1.3
	c-1-0.2-1.7,1.4-1.9,1.8c-0.2,0.5,0,8.7,0,8.7l-0.7,4.7C326.6,276.8,330.3,276.9,333.1,279.3z M426.5,277.1c1.2,1.5,4.2,3.3,4.2,3.3
	l0.2,1.9c1.4-0.6,3.7-1.2,5.2-0.5c1.2,0.6,2.1,1,2.6,1.3l-0.1-2.5l0.1-2.2c0,0,0.4-6.9,0.1-8.5c-0.2-1.6-1-3.4-2-4.4
	c-1.1-1-3-0.6-3-0.6s-1.6,0.2-3.2,0.2c-1.3-0.2-2.3,0.2-3.6,0.6c-0.4-0.7-1.4-0.9-1.9,0.1c-0.5,0.9-1.5,3.9-1.5,3.9l0.7,2.3
	C424.2,271.8,425.3,275.6,426.5,277.1z M445.1,549.2c-3-5.2-6.1-10.3-7.9-13.2c1.8-2.7-1.6-5.4-1.6-5.4l-1.2-4l0.3-4.9
	c0,0-2.9-36.5-2.6-37.7c0.3-1.2-0.6-6.1-1.5-6.7c-0.9-0.6-24.2-45.1-24.2-45.1s3.3-2.7-2.6-7.5c3.3-2.8,5.3-6.3,5.3-6.3l-3.2-10.3
	l0-2l-1-5.9l2.1-28.3c0,0,3.8-10,4.2-10.7c0.4-0.8,2.3-5,2.3-5s21.2-22.1,22.3-23c1.1-1,5.2-6.6,5.3-8.7c0.1-2-1.1-37.8-1.1-37.8
	s-3.7-2.8-5.9-2.7c-2.2,0.1-6.6,2.3-6.6,2.3s0,12.4-0.1,13.4c-0.1,1-0.1,5.5-0.1,5.5l-1.7,14.6l-0.9,2.6l-29.8,15.3
	c0,0-0.1-0.1-0.3-0.3L394,345h-3.1l-7.2,33.7l1.9-31.3l1.6-3.7l-1.9-3.6l6.4-4.9c-0.1-0.1-0.2-0.1-0.3-0.2c0.4-0.3,0.6-0.5,0.6-0.5
	s1.2-4.1,1.6-5.4c0.8-0.7,1.2-4.7,1.4-5.3c0.8,0,2-1.4,2.1-2.3c0.1-0.9,1-1.5,1.6-3.8c0.6-2.3-1.5-2.6-1.5-2.6s0.7-4.2,0.9-8.9
	c0.2-4.7-5.2-8.1-6.1-8.9c-0.9-0.7-2.5-1.9-3.4-3c-0.6-0.7-1.7-2-1.7-2s-0.4,1.2-0.6,1.1c0.1-0.7-0.7-2.6-0.7-2.6l-1,1.3l-0.6-1.2
	c0,0-2.9,2.6-7.1,4.5c-4.2,1.9-4.5,5-4.5,5s-1.1,2.1-1.5,2.5c-0.4,0.3-0.6,6.9-0.6,8.8c-0.9,0-1.3,1.6-1.4,2.5
	c-0.1,0.9,0.4,4.3,0.7,5.3c0.3,1,0.4,3,1.8,3.4c0.2,5.5,3.5,10.2,3.5,10.2l0.3,2.6c0,0,3.4,2.8,5.5,4.6l-0.9,4.5l0.7,1.4l-5.6,29.9
	l-0.9-30.2l-2.5-3.4l2-5.1c-2.5-1-13.2-5.1-13.8-5.3c-0.6-0.2-16.7-11-17.9-11.9c-1.2-0.9-3.4-1.2-3.4-1.2s-1.3-1.7-2.3-1.9
	c-1-0.3-2.6-21-2.3-22.8c0.3-1.8,1.8-11.1,1.8-11.1s-5.1-3.1-9.3-3.5c-4.2-0.4-3.5,1.6-3.5,1.6s-2.7,28.5-2.8,31.3
	c-0.1,2.8,0.7,7.1,2.8,9.5c2.1,2.3,5.2,5.3,6,5.8c0.8,0.4,19.4,20.9,19.8,21.5c0.4,0.6,0.3,5.5,1.7,7c1.3,1.5,0.8,20.3,0.5,21.5
	c-0.3,1.2-0.4,25.3-0.6,26.1c-0.2,0.8-6.9,17.4-6.9,17.4s2.7,1.3,6.4,2.9c-0.9,1.4-1.8,2.7-2.2,3.1c-0.9,1.2-0.6,4.6-0.6,6.1
	c0,1.5-16.5,33.7-16.5,35.8c0,2.1-2.2,7.9,0.6,16.7c2.7,8.8,6.9,25.3,6.9,25.3s0.9,3,0.9,4c0,0.9-0.3,4.3-0.3,4.3s1.2,0.6,3,1.4
	l-0.9,2.9c0,0-7.3,5.8-10.1,8.8c-2.7,3-4,6.1,0.9,7c4.9,0.9,19.5-5.7,21.9-6.3c2.4-0.6,6.1-2.7,6.1-4.2c0-1.5,0-5.5-0.3-7.9
	c-0.2-1.7-0.6-3.4-1.1-4.4c0.3-0.9,0.4-1.7,0.2-2c-0.6-0.9-2.7-7-2.7-7s-4.5-29.5-4.5-31.9c0-2.4,18-26.1,20.2-27.6
	c2.1-1.5,5.5-0.6,6.7,1.2c1.2,1.8,29.7,30.2,30.6,32.6c0.9,2.4,1.8,5.2,2.7,6.1c0.9,0.9,0,3.3,0,3.3s3.8,36.2,5.1,37.4
	c1.2,1.2,2.1,3.7,2.1,3.7l0.6,3.3c0,0,0.3,0.2,0.9,0.6c0.2,1.6,0.5,3,1,3.5c1.6,2,4.4,4.9,4.4,4.9s3.6,5.7,6.5,7.7
	c2.8,2,8.5,4.9,10.9,4.5C445.1,556.5,447.9,554.1,445.1,549.2z"/>
<ellipse fill="#FFFFFF" cx="378.7" cy="254.1" rx="88" ry="19.1"/>
<rect x="290.7" y="62.7" fill="#FFFFFF" width="176" height="191.4"/>
<ellipse fill="#EFEFEF" cx="378.7" cy="62.7" rx="88" ry="19.1"/>
<text transform="matrix(1 0 0 1 292.1332 178.674)" fill="#FFF100" font-family="'KozGoPr6N-Regular-83pv-RKSJ-H'" font-size="40.7109">RootBeer</text>
</svg>
