<?xml version="1.0" encoding="utf-8"?>
<!-- Generator: Adobe Illustrator 18.0.0, SVG Export Plug-In . SVG Version: 6.00 Build 0)  -->
<!DOCTYPE svg PUBLIC "-//W3C//DTD SVG 1.1//EN" "http://www.w3.org/Graphics/SVG/1.1/DTD/svg11.dtd">
<svg version="1.1" id="レイヤー_1" xmlns="http://www.w3.org/2000/svg" xmlns:xlink="http://www.w3.org/1999/xlink" x="0px"
	 y="0px" viewBox="0 0 640 640" enable-background="new 0 0 640 640" xml:space="preserve">
<rect fill="#2EA7E0" width="640" height="640"/>
<text transform="matrix(1 0 0 1.1741 113.6104 50.3818)" fill="#FFFFFF" font-family="'KozGoPr6N-Regular-83pv-RKSJ-H'" font-size="160.9587" glyph-orientation-vertical="0" writing-mode="tb">飲んだ</text>
<text transform="matrix(1.5961 0 0 1 214.1354 604.7383)" fill="#FFFFFF" font-family="'KozMinPr6N-Heavy-83pv-RKSJ-H'" font-size="81.2874">Drank</text>
<path fill="#FFFFFF" d="M375.1,241.6l2.2-4.6l9.4-5.6c0,0,2.7-3,1-4.5c0,0,1.2-4.4,0.8-5.4c-0.4-1.1-2.2-2.4-3.8-1.4
	c0,0-1.9-2-4.3-0.4c0,0-2.6-0.8-4.3,0.6c0,0-3.1-0.6-4.7,0.9c-1.6,1.5-4.5,7.2-4.9,12.2c-0.3,3.7-0.6,4.1-0.7,4.1
	C366.5,238.1,372.6,242.2,375.1,241.6z M398.8,259.9l0.6,1.1c3.5-2.6,8.4-1.7,8.4-1.7l-0.2-1.1c0,0,2.5-3.9,3.7-5
	c1.2-1.1,1.7-5.8,1.5-6.9c-0.2-1.1-1.6-2.3-3.5-3.5c-1.9-1.2-2.7-0.4-2.7-0.4s-1.6-0.5-2.3-0.4c-0.6,0.1-1,0.8-2.4,0.7
	c-1.4-0.1-1.5,1.4-2.7,1.6c-1.2,0.2-1.8,1.4-2.6,1.8c-0.8,0.4-1.5,1.1-1.4,2.5c0,1.4,1.9,6.3,1.9,6.3L398.8,259.9z M433.1,280.9
	c0.1,0.3,0.3,0.9,0.5,1.6l0.2,0.1c7.1-1.5,20.3,3.2,22.5,4.1l1.5-3c0,0,12.1-5.3,16.2-13.9c1.5-3,0.4-8.4,0.4-8.4s0.3-8.9-7.8-14.2
	c-8.1-5.3-15.2-9.5-15.2-9.5s-1,0.7-0.7,1.6c-1.6-0.7-3.3-2.2-3.3-2.2s-1.7,3.4,0.1,5.9c-1.3,0.1-3.9-0.6-3.9-0.6s1.2,2.8,1.1,4.5
	c0,0.6-4.3,4.3-4.3,4.3s-2.2,1.5-2.1,3c0.1,1.5-3.3,3.8-4.4,4c-1.1,0.2-1.5,2.2-0.4,3c1.1,0.8,0,1.7,0,1.7s-1.1,1.3-0.7,1.6
	c0,0,0.1,0.1,0.2,0.1c-0.1,0.3-0.3,0.7-0.2,1c0.1,0.5,0.6,0.5,0.6,0.5s0.6,0.7,1.1,1.2c-0.2,0.8-0.6,2.4-1,3.2
	c-0.6-0.5-1.3-1-1.5-1.1c-0.4-0.3-1-0.4-1.1,0.2c-0.7-0.3-1.3,2-1.3,2s-2.5,4.5-1.6,5.6C429,278.5,432.8,280,433.1,280.9z
	 M365.7,237.6C365.6,237.5,365.6,237.5,365.7,237.6C365.6,237.5,365.6,237.6,365.7,237.6z M468.7,499.4c0.3-1.1,0.4-1.8,0.4-1.8
	l-3-5.9c0,0-5.3-2.4-5.9-5.2c-0.7-2.8-30.6-33.7-30.6-33.7s2-6.4-0.9-8.5c0.7-4,0.6-9.4,0.6-9.4s6.6-12.3,9.2-26.7
	c1.7-0.1,3.5-0.1,5.3-0.3l3.6-12l1.6-25.6c0,0,2.9-11.4,5.9-19.3c5.4-13.7,10.9-25.2,12.2-33c3.6-17.4-1.6-18.4-2.3-19.6
	c-0.4-0.6-4.7-4.8-8.5-8.6c0,0-8-4.1-23.3-7c0,0-0.2-0.1-0.4-0.1c-3.9,0.2-7.4-0.4-7.4-0.4s-5.9-1-7-1.5c-0.2-0.1-0.6-0.1-1.2-0.2
	l0.1-0.1l-6.6-18.1c-12.8-0.7-13.3,6.6-13.3,6.6l1.6,11.9c-0.2-0.1-0.3-0.2-0.4-0.3c-0.2-0.3-1.7-1.7-1.7-1.7s-3.6-0.4-5.5-0.7
	c-1-0.2-12.5-4.2-12.5-4.2s-6.9-3.8-6.1-4.5c0.8-0.7-0.8-3.5-0.8-3.5c0.7-3.9,5-18.2,5-18.2s-8.3-4.3-10.4-5
	c-2.2-0.7-2.9-1.4-3.5-1.1c-0.7,0.3-5.8,14.9-8.4,22.7c-2.6,7.8-1.8,7.5-2.2,8.8c-0.5,1.3-0.7,12.1,4.3,15.8
	c5,3.7,25.8,13,26.6,13.4c0.9,0.5,7.7,4,8,4.7c0.3,0.6,9.5,6.8,9.5,6.8l0.3,2.1l-7,30.5l-13.7,42.1c0,0,1,1.1,3.1,2.7
	c-0.1,0.4-0.3,0.8-0.4,1.1c-5.2,11.1-16.6,38.8-18.1,41.8c-4.1,8.1-2.3,16.4-2.3,16.4s12.8,50.3,14.4,52.7c1.6,2.3,3.7,9.1,2.4,12.2
	c-0.8,1.9,2.5,4,6.9,4.9l-1.4,4.4c0,0-7.4,5-13,6.2c-5.6,1.2-3.7,6.2-3.7,6.2s5,3.7,8.7,3.7c3.7,0,17.4-1.9,17.4-1.9s0,0,5-0.6
	c5-0.6,9.3-3.1,10.5-6.8c1.2-3.7-1.9-8.7-1.9-8.7l-3.8-8.7c0.9-1.1,1.3-1.9,1.3-1.9s-15.8-54.6-14.8-58.7c0.4-1.8,4-9.1,8.2-16.9
	c0.7,9.9,1.4,18.1,2.2,20c5.2,12.6,35.4,42.3,35.4,42.3l7.8,4.5c0,0-1.3,8.6,6.1,9.4l-1.2,7.8c0,0-3.2,4.5-6.5,5.8
	c-3.2,1.3-5.2,3.9-1.3,5.8c3.9,1.9,14.9-0.6,14.9-0.6l7.1-7.1c0,0,6.5-5.8,8.4-6.5c1.9-0.7,1.9-6.5,2.6-10.4
	C474.7,505.5,471.3,501.8,468.7,499.4z"/>
<path fill="#FFFFFF" d="M300.1,131.4c-4.5-6.7,11.8-33.1,36.3-59s48-41.5,52.5-34.8c4.5,6.7-11.8,33.1-36.3,59
	S304.5,138.1,300.1,131.4z"/>
<polygon fill="#FFFFFF" points="300.1,131.4 388.8,37.6 470,159 381.2,252.8 "/>
<path fill="#EFEFEF" d="M381.2,252.8c-4.5-6.7,11.8-33.1,36.3-59s48-41.5,52.5-34.8c4.5,6.7-11.8,33.1-36.3,59
	S385.7,259.5,381.2,252.8z"/>
<text transform="matrix(-0.6612 0.6989 -0.556 -0.8312 420.0786 86.2023)" fill="#00A0E9" font-family="'KozGoPr6N-Regular-83pv-RKSJ-H'" font-size="31.0517">RootBeer</text>
</svg>
